<?xml version="1.0" encoding="iso-8859-1"?>
<!-- Generator: Adobe Illustrator 19.0.0, SVG Export Plug-In . SVG Version: 6.00 Build 0)  -->
<svg version="1.1" id="Layer_1" xmlns="http://www.w3.org/2000/svg" xmlns:xlink="http://www.w3.org/1999/xlink" x="0px" y="0px"
	 viewBox="0 0 381.354 381.354" style="enable-background:new 0 0 381.354 381.354;" xml:space="preserve">
<g>
	<g>
		<g>
			<path d="M184,317.677c-4.4,0-8,3.6-8,8v4c0,4.4,3.6,8,8,8c4.4,0,8-3.6,8-8v-4C192,321.277,188.4,317.677,184,317.677z"/>
			<path d="M52,185.677h-4c-4.4,0-8,3.6-8,8c0,4.4,3.6,8,8,8h4c4.4,0,8-3.6,8-8C60,189.277,56.4,185.677,52,185.677z"/>
			<path d="M316,201.677h4c4.4,0,8-3.6,8-8c0-4.4-3.6-8-8-8h-4c-4.4,0-8,3.6-8,8C308,198.077,311.6,201.677,316,201.677z"/>
			<path d="M93.6,92.077c-3.2-3.2-8-3.2-11.2,0c-3.2,3.2-3.2,8,0,11.2l2.8,2.8c1.6,1.6,3.6,2.4,5.6,2.4s4-0.8,5.6-2.4
				c3.2-3.2,3.2-8,0-11.2L93.6,92.077z"/>
			<path d="M282.8,281.277c-3.2-3.2-8-3.2-11.2,0s-3.2,8,0,11.2l2.8,2.8c1.6,1.6,3.6,2.4,5.6,2.4s4-0.8,5.6-2.4
				c3.2-3.2,3.2-8,0-11.2L282.8,281.277z"/>
			<path d="M85.2,281.277l-2.8,2.8c-3.2,3.2-3.2,8,0,11.2c1.6,1.6,3.6,2.4,5.6,2.4s4-0.8,5.6-2.4l2.8-2.8c3.2-3.2,3.2-8,0-11.2
				S88.4,278.077,85.2,281.277z"/>
			<path d="M274.4,92.077l-2.8,2.8c-3.2,3.2-3.2,8,0,11.2c1.6,1.6,3.6,2.4,5.6,2.4s4-0.8,5.6-2.4l2.8-2.8c3.2-3.2,3.2-8,0-11.2
				C282.4,88.877,277.6,88.877,274.4,92.077z"/>
			<path d="M192,154.477v-84.8c0-4.4-3.6-8-8-8c-4.4,0-8,3.6-8,8v84.8c-18.4,3.6-32,20-32,39.2c0,22,18,40,40,40s40-18,40-40
				C224,174.477,210.4,158.077,192,154.477z M184,217.677c-13.2,0-24-10.8-24-24s10.8-24,24-24s24,10.8,24,24
				S197.2,217.677,184,217.677z"/>
			<path d="M376,38.077l-28.4-28.4c-4-4-9.2-6-14.8-6c-5.2,0-10,2.4-13.6,6l-5.6,5.6c-4,4-6,9.2-6,14.8c0,5.2,2.4,10,6,13.6l8.4,8.4
				l-10,10c-32.8-32.4-78-52.4-128-52.4c-101.6,0-184,82.4-184,184s82.4,184,184,184s184-82.4,184-184c0-46-16.8-87.6-44.8-120
				l10.4-10.4l8.4,8.4c4,4,8.8,6,14,6s10-2,14-6l5.2-5.2c4-3.6,6-8.8,6-14.4C382,46.477,379.6,41.677,376,38.077z M352,193.677
				c0,92.8-75.2,168-168,168s-168-75.2-168-168s75.2-168,168-168S352,100.877,352,193.677z M364.8,54.877l-5.6,5.6
				c-1.6,1.6-4,1.6-5.6,0l-28.8-28.8c-0.8-0.8-0.8-1.6-1.2-2.4c0-0.8,0-2,1.2-2.8l6-6c0.8-0.8,1.6-0.8,2.4-1.2c0.8,0,2,0,2.8,1.2
				l28.4,28.4c0,0,0,0,0.4,0.4c0.8,0.4,1.2,1.6,1.2,2.4S365.6,54.077,364.8,54.877z"/>
		</g>
	</g>
</g>
<g>
</g>
<g>
</g>
<g>
</g>
<g>
</g>
<g>
</g>
<g>
</g>
<g>
</g>
<g>
</g>
<g>
</g>
<g>
</g>
<g>
</g>
<g>
</g>
<g>
</g>
<g>
</g>
<g>
</g>
</svg>
